{
    "accessors" : [
        {
            "bufferView" : 0,
            "componentType" : 5121,
            "count" : 195,
            "max" : [
                134
            ],
            "min" : [
                0
            ],
            "type" : "SCALAR"
        },
        {
            "bufferView" : 1,
            "componentType" : 5126,
            "count" : 135,
            "max" : [
                0.10688699781894684,
                0.06421799957752228,
                0.8936439752578735
            ],
            "min" : [
                -0.03850699961185455,
                -0.6162959933280945,
                -0.3007729947566986
            ],
            "type" : "VEC3"
        },
        {
            "bufferView" : 2,
            "componentType" : 5126,
            "count" : 135,
            "max" : [
                0.9589526057243347,
                0.9934080243110657,
                0.8148747086524963
            ],
            "min" : [
                -0.9504074454307556,
                -0.8513443470001221,
                -0.764854907989502
            ],
            "type" : "VEC3"
        },
        {
            "bufferView" : 3,
            "componentType" : 5126,
            "count" : 135,
            "max" : [
                0.993232250213623,
                0.9261837005615234,
                0.8342151045799255,
                1.0
            ],
            "min" : [
                -0.9960079193115234,
                -0.951175332069397,
                -0.8475410342216492,
                1.0
            ],
            "type" : "VEC4"
        },
        {
            "bufferView" : 4,
            "componentType" : 5126,
            "count" : 135,
            "max" : [
                0.9861000180244446,
                0.9809000007808208
            ],
            "min" : [
                0.13519999384880066,
                0.020500004291534424
            ],
            "type" : "VEC2"
        },
        {
            "bufferView" : 5,
            "componentType" : 5121,
            "count" : 255,
            "max" : [
                174
            ],
            "min" : [
                0
            ],
            "type" : "SCALAR"
        },
        {
            "bufferView" : 6,
            "componentType" : 5126,
            "count" : 175,
            "max" : [
                0.0967859998345375,
                0.14202000200748444,
                0.9244449734687805
            ],
            "min" : [
                -0.6986939907073975,
                -0.11033099889755249,
                -0.8674049973487854
            ],
            "type" : "VEC3"
        },
        {
            "bufferView" : 7,
            "componentType" : 5126,
            "count" : 175,
            "max" : [
                0.9129917025566101,
                0.9906613230705261,
                0.6831263303756714
            ],
            "min" : [
                -0.9914548397064209,
                -0.8980681896209717,
                -0.7813348770141602
            ],
            "type" : "VEC3"
        },
        {
            "bufferView" : 8,
            "componentType" : 5126,
            "count" : 175,
            "max" : [
                0.9761518239974976,
                0.9814615249633789,
                0.7483338713645935,
                1.0
            ],
            "min" : [
                -0.9678981900215149,
                -0.9850786924362183,
                -0.7458500266075134,
                1.0
            ],
            "type" : "VEC4"
        },
        {
            "bufferView" : 9,
            "componentType" : 5126,
            "count" : 175,
            "max" : [
                0.9847999811172485,
                0.9809000007808208
            ],
            "min" : [
                0.04410000145435333,
                0.014900028705596924
            ],
            "type" : "VEC2"
        }
    ],
    "asset" : {
        "generator" : "Khronos Blender glTF 2.0 exporter",
        "version" : "2.0"
    },
    "bufferViews" : [
        {
            "buffer" : 0,
            "byteLength" : 195,
            "byteOffset" : 0,
            "target" : 34963
        },
        {
            "buffer" : 0,
            "byteLength" : 1620,
            "byteOffset" : 196,
            "target" : 34962
        },
        {
            "buffer" : 0,
            "byteLength" : 1620,
            "byteOffset" : 1816,
            "target" : 34962
        },
        {
            "buffer" : 0,
            "byteLength" : 2160,
            "byteOffset" : 3436,
            "target" : 34962
        },
        {
            "buffer" : 0,
            "byteLength" : 1080,
            "byteOffset" : 5596,
            "target" : 34962
        },
        {
            "buffer" : 0,
            "byteLength" : 255,
            "byteOffset" : 6676,
            "target" : 34963
        },
        {
            "buffer" : 0,
            "byteLength" : 2100,
            "byteOffset" : 6932,
            "target" : 34962
        },
        {
            "buffer" : 0,
            "byteLength" : 2100,
            "byteOffset" : 9032,
            "target" : 34962
        },
        {
            "buffer" : 0,
            "byteLength" : 2800,
            "byteOffset" : 11132,
            "target" : 34962
        },
        {
            "buffer" : 0,
            "byteLength" : 1400,
            "byteOffset" : 13932,
            "target" : 34962
        }
    ],
    "buffers" : [
        {
            "byteLength" : 15332,
            "uri" : "ln4.bin"
        }
    ],
    "materials" : [
        {
            "emissiveFactor" : [
                2.8507919311523438,
                3.0,
                0.9996901452541351
            ],
            "name" : "light",
            "pbrMetallicRoughness" : {
                "baseColorFactor" : [
                    0.76384856655568,
                    0.8038277626037598,
                    0.2678595642522197,
                    1.0
                ],
                "metallicFactor" : 0.0
            }
        }
    ],
    "meshes" : [
        {
            "name" : "lightning_bolt.003",
            "primitives" : [
                {
                    "attributes" : {
                        "NORMAL" : 2,
                        "POSITION" : 1,
                        "TANGENT" : 3,
                        "TEXCOORD_0" : 4
                    },
                    "indices" : 0,
                    "material" : 0
                }
            ]
        },
        {
            "name" : "lightning_bolt.002",
            "primitives" : [
                {
                    "attributes" : {
                        "NORMAL" : 7,
                        "POSITION" : 6,
                        "TANGENT" : 8,
                        "TEXCOORD_0" : 9
                    },
                    "indices" : 5,
                    "material" : 0
                }
            ]
        }
    ],
    "nodes" : [
        {
            "name" : "Camera",
            "rotation" : [
                0.483536034822464,
                0.33687159419059753,
                -0.20870360732078552,
                0.7804827094078064
            ],
            "translation" : [
                7.481131553649902,
                5.34366512298584,
                6.5076398849487305
            ]
        },
        {
            "name" : "Lamp",
            "rotation" : [
                0.16907575726509094,
                0.7558802962303162,
                -0.27217137813568115,
                0.570947527885437
            ],
            "scale" : [
                1.0,
                1.0,
                0.9999999403953552
            ],
            "translation" : [
                4.076245307922363,
                5.903861999511719,
                -1.0054539442062378
            ]
        },
        {
            "mesh" : 1,
            "name" : "lightning_bolt.002",
            "rotation" : [
                0.7071068286895752,
                0.0,
                -0.0,
                0.7071067094802856
            ]
        },
        {
            "mesh" : 0,
            "name" : "lightning_bolt.003",
            "rotation" : [
                0.7071068286895752,
                0.0,
                -0.0,
                0.7071067094802856
            ]
        }
    ],
    "scene" : 0,
    "scenes" : [
        {
            "name" : "Scene",
            "nodes" : [
                3,
                2,
                1,
                0
            ]
        }
    ]
}
