{
    "accessors" : [
        {
            "bufferView" : 0,
            "componentType" : 5121,
            "count" : 195,
            "max" : [
                134
            ],
            "min" : [
                0
            ],
            "type" : "SCALAR"
        },
        {
            "bufferView" : 1,
            "componentType" : 5126,
            "count" : 135,
            "max" : [
                0.10688699781894684,
                0.06421799957752228,
                0.8936439752578735
            ],
            "min" : [
                -0.03850699961185455,
                -0.6162959933280945,
                -0.3007729947566986
            ],
            "type" : "VEC3"
        },
        {
            "bufferView" : 2,
            "componentType" : 5126,
            "count" : 135,
            "max" : [
                0.9589526057243347,
                0.9934080243110657,
                0.8148747086524963
            ],
            "min" : [
                -0.9504074454307556,
                -0.8513443470001221,
                -0.764854907989502
            ],
            "type" : "VEC3"
        },
        {
            "bufferView" : 3,
            "componentType" : 5126,
            "count" : 135,
            "max" : [
                0.993232250213623,
                0.9261837005615234,
                0.8342151045799255,
                1.0
            ],
            "min" : [
                -0.9960079193115234,
                -0.951175332069397,
                -0.8475410342216492,
                1.0
            ],
            "type" : "VEC4"
        },
        {
            "bufferView" : 4,
            "componentType" : 5126,
            "count" : 135,
            "max" : [
                0.9861000180244446,
                0.9809000007808208
            ],
            "min" : [
                0.13519999384880066,
                0.020500004291534424
            ],
            "type" : "VEC2"
        },
        {
            "bufferView" : 5,
            "componentType" : 5121,
            "count" : 165,
            "max" : [
                114
            ],
            "min" : [
                0
            ],
            "type" : "SCALAR"
        },
        {
            "bufferView" : 6,
            "componentType" : 5126,
            "count" : 115,
            "max" : [
                0.24473799765110016,
                -0.051201000809669495,
                1.519394040107727
            ],
            "min" : [
                -0.2608320116996765,
                -0.3109320104122162,
                0.1260949969291687
            ],
            "type" : "VEC3"
        },
        {
            "bufferView" : 7,
            "componentType" : 5126,
            "count" : 115,
            "max" : [
                0.8640094995498657,
                0.9766533374786377,
                0.7613757848739624
            ],
            "min" : [
                -0.9905392527580261,
                -0.9308145642280579,
                -0.669850766658783
            ],
            "type" : "VEC3"
        },
        {
            "bufferView" : 8,
            "componentType" : 5126,
            "count" : 115,
            "max" : [
                0.9648362398147583,
                0.9952119588851929,
                0.7609924077987671,
                1.0
            ],
            "min" : [
                -0.9759557843208313,
                -0.9900444149971008,
                -0.6569936275482178,
                1.0
            ],
            "type" : "VEC4"
        },
        {
            "bufferView" : 9,
            "componentType" : 5126,
            "count" : 115,
            "max" : [
                0.9848999977111816,
                0.8675999939441681
            ],
            "min" : [
                0.045499999076128006,
                0.015500009059906006
            ],
            "type" : "VEC2"
        },
        {
            "bufferView" : 10,
            "componentType" : 5121,
            "count" : 195,
            "max" : [
                134
            ],
            "min" : [
                0
            ],
            "type" : "SCALAR"
        },
        {
            "bufferView" : 11,
            "componentType" : 5126,
            "count" : 135,
            "max" : [
                0.24473699927330017,
                0.12920799851417542,
                1.3549929857254028
            ],
            "min" : [
                -0.1496489942073822,
                -0.27291300892829895,
                -0.121069997549057
            ],
            "type" : "VEC3"
        },
        {
            "bufferView" : 12,
            "componentType" : 5126,
            "count" : 135,
            "max" : [
                0.8852809071540833,
                0.9873042702674866,
                0.8598589897155762
            ],
            "min" : [
                -0.9956969022750854,
                -0.9029511213302612,
                -0.772789716720581
            ],
            "type" : "VEC3"
        },
        {
            "bufferView" : 13,
            "componentType" : 5126,
            "count" : 135,
            "max" : [
                0.9715747237205505,
                0.9929758906364441,
                0.7152323722839355,
                1.0
            ],
            "min" : [
                -0.9808472394943237,
                -0.9919389486312866,
                -0.8929948806762695,
                1.0
            ],
            "type" : "VEC4"
        },
        {
            "bufferView" : 14,
            "componentType" : 5126,
            "count" : 135,
            "max" : [
                0.9757000207901001,
                0.9809000007808208
            ],
            "min" : [
                0.18479999899864197,
                0.03530001640319824
            ],
            "type" : "VEC2"
        }
    ],
    "asset" : {
        "generator" : "Khronos Blender glTF 2.0 exporter",
        "version" : "2.0"
    },
    "bufferViews" : [
        {
            "buffer" : 0,
            "byteLength" : 195,
            "byteOffset" : 0,
            "target" : 34963
        },
        {
            "buffer" : 0,
            "byteLength" : 1620,
            "byteOffset" : 196,
            "target" : 34962
        },
        {
            "buffer" : 0,
            "byteLength" : 1620,
            "byteOffset" : 1816,
            "target" : 34962
        },
        {
            "buffer" : 0,
            "byteLength" : 2160,
            "byteOffset" : 3436,
            "target" : 34962
        },
        {
            "buffer" : 0,
            "byteLength" : 1080,
            "byteOffset" : 5596,
            "target" : 34962
        },
        {
            "buffer" : 0,
            "byteLength" : 165,
            "byteOffset" : 6676,
            "target" : 34963
        },
        {
            "buffer" : 0,
            "byteLength" : 1380,
            "byteOffset" : 6844,
            "target" : 34962
        },
        {
            "buffer" : 0,
            "byteLength" : 1380,
            "byteOffset" : 8224,
            "target" : 34962
        },
        {
            "buffer" : 0,
            "byteLength" : 1840,
            "byteOffset" : 9604,
            "target" : 34962
        },
        {
            "buffer" : 0,
            "byteLength" : 920,
            "byteOffset" : 11444,
            "target" : 34962
        },
        {
            "buffer" : 0,
            "byteLength" : 195,
            "byteOffset" : 12364,
            "target" : 34963
        },
        {
            "buffer" : 0,
            "byteLength" : 1620,
            "byteOffset" : 12560,
            "target" : 34962
        },
        {
            "buffer" : 0,
            "byteLength" : 1620,
            "byteOffset" : 14180,
            "target" : 34962
        },
        {
            "buffer" : 0,
            "byteLength" : 2160,
            "byteOffset" : 15800,
            "target" : 34962
        },
        {
            "buffer" : 0,
            "byteLength" : 1080,
            "byteOffset" : 17960,
            "target" : 34962
        }
    ],
    "buffers" : [
        {
            "byteLength" : 19040,
            "uri" : "ln5.bin"
        }
    ],
    "materials" : [
        {
            "emissiveFactor" : [
                2.8507919311523438,
                3.0,
                0.9996901452541351
            ],
            "name" : "light",
            "pbrMetallicRoughness" : {
                "baseColorFactor" : [
                    0.76384856655568,
                    0.8038277626037598,
                    0.2678595642522197,
                    1.0
                ],
                "metallicFactor" : 0.0
            }
        }
    ],
    "meshes" : [
        {
            "name" : "lightning_bolt.003",
            "primitives" : [
                {
                    "attributes" : {
                        "NORMAL" : 2,
                        "POSITION" : 1,
                        "TANGENT" : 3,
                        "TEXCOORD_0" : 4
                    },
                    "indices" : 0,
                    "material" : 0
                }
            ]
        },
        {
            "name" : "lightning_bolt.005",
            "primitives" : [
                {
                    "attributes" : {
                        "NORMAL" : 7,
                        "POSITION" : 6,
                        "TANGENT" : 8,
                        "TEXCOORD_0" : 9
                    },
                    "indices" : 5,
                    "material" : 0
                }
            ]
        },
        {
            "name" : "lightning_bolt.004",
            "primitives" : [
                {
                    "attributes" : {
                        "NORMAL" : 12,
                        "POSITION" : 11,
                        "TANGENT" : 13,
                        "TEXCOORD_0" : 14
                    },
                    "indices" : 10,
                    "material" : 0
                }
            ]
        }
    ],
    "nodes" : [
        {
            "name" : "Camera",
            "rotation" : [
                0.483536034822464,
                0.33687159419059753,
                -0.20870360732078552,
                0.7804827094078064
            ],
            "translation" : [
                7.481131553649902,
                5.34366512298584,
                6.5076398849487305
            ]
        },
        {
            "name" : "Lamp",
            "rotation" : [
                0.16907575726509094,
                0.7558802962303162,
                -0.27217137813568115,
                0.570947527885437
            ],
            "scale" : [
                1.0,
                1.0,
                0.9999999403953552
            ],
            "translation" : [
                4.076245307922363,
                5.903861999511719,
                -1.0054539442062378
            ]
        },
        {
            "mesh" : 0,
            "name" : "lightning_bolt.003",
            "rotation" : [
                0.7071068286895752,
                0.0,
                -0.0,
                0.7071067094802856
            ]
        },
        {
            "mesh" : 2,
            "name" : "lightning_bolt.004",
            "rotation" : [
                0.7071068286895752,
                0.0,
                -0.0,
                0.7071067094802856
            ]
        },
        {
            "mesh" : 1,
            "name" : "lightning_bolt.005",
            "rotation" : [
                0.7071068286895752,
                0.0,
                -0.0,
                0.7071067094802856
            ]
        }
    ],
    "scene" : 0,
    "scenes" : [
        {
            "name" : "Scene",
            "nodes" : [
                4,
                3,
                2,
                1,
                0
            ]
        }
    ]
}
